<svg width="12" height="20" viewBox="0 0 12 20" fill="none" xmlns="http://www.w3.org/2000/svg">
<path d="M5.21999 19.2V16.68C3.60666 16.56 2.39999 16.0933 1.59999 15.28C0.79999 14.4533 0.346657 13.3867 0.23999 12.08H2.71999C2.81332 12.84 3.03332 13.4467 3.37999 13.9C3.73999 14.34 4.35332 14.6133 5.21999 14.72V10.22C3.68666 9.95334 2.55332 9.50667 1.81999 8.88001C1.08666 8.25334 0.71999 7.32667 0.71999 6.10001C0.71999 4.98001 1.13332 4.04667 1.95999 3.30001C2.78666 2.55334 3.87332 2.13334 5.21999 2.04V0.240005H6.55999V2.06C7.86666 2.18 8.89999 2.58 9.65999 3.26C10.42 3.94001 10.86 4.89334 10.98 6.12H8.61999C8.39332 4.89334 7.70666 4.18667 6.55999 4.00001V8.10001C8.14666 8.35334 9.31999 8.79334 10.08 9.42001C10.8533 10.0467 11.24 11 11.24 12.28C11.24 13.48 10.82 14.4933 9.97999 15.32C9.13999 16.1333 7.99999 16.5867 6.55999 16.68V19.2H5.21999ZM8.17999 14C8.57999 13.6 8.77999 13.1067 8.77999 12.52C8.77999 11.9333 8.61999 11.4867 8.29999 11.18C7.99332 10.8733 7.41332 10.6267 6.55999 10.44V14.72C7.23999 14.6267 7.77999 14.3867 8.17999 14ZM3.07999 5.88001C3.07999 6.44001 3.22666 6.87334 3.51999 7.18001C3.81332 7.47334 4.37999 7.70667 5.21999 7.88001V3.94001C4.53999 4.02001 4.01332 4.24001 3.63999 4.60001C3.26666 4.94667 3.07999 5.37334 3.07999 5.88001Z" fill="#002EB7"/>
</svg>
