<svg width="32" height="32" viewBox="0 0 32 32" fill="none" xmlns="http://www.w3.org/2000/svg">
<g clip-path="url(#clip0_1452_3428)">
<path d="M31.0303 16C31.0303 20.2737 29.4164 24.292 26.486 27.3137C23.5559 30.3357 19.6593 32 15.5152 32C11.371 32 7.47443 30.3357 4.54427 27.3137C1.61387 24.292 0 20.2737 0 16C0 11.7263 1.61387 7.70801 4.54427 4.68628C7.47443 1.66431 11.371 0 15.5152 0C19.6593 0 23.5559 1.66431 26.486 4.68628C29.4164 7.70801 31.0303 11.7263 31.0303 16Z" fill="#0052FF"/>
<path d="M31.0303 16C31.0303 15.6382 31.0178 15.2783 30.9948 14.9204L24.554 8.27832L10.8485 15.6458L6.47633 23.7217L14.4683 31.9634C14.8153 31.9871 15.1643 32 15.5152 32C19.6593 32 23.5559 30.3357 26.486 27.3137C29.4164 24.292 31.0303 20.2737 31.0303 16Z" fill="#00177A"/>
<path d="M24.554 8.27832V23.7217H19.209V16.3938L15.5201 20.1978L15.5194 20.197L15.5152 20.2014L15.1399 19.8162L11.8213 16.3938V23.7217H6.47633V8.27832H11.5111L15.5152 12.4075L19.5192 8.27832H24.554Z" fill="white"/>
</g>
<defs>
<clipPath id="clip0_1452_3428">
<rect width="31.0303" height="32" fill="white"/>
</clipPath>
</defs>
</svg>
